# xmcd
#
# Track frame offsets:
#	150
#	18379
#	45155
#	73052
#
# Disc length: 1283 seconds
#
# Revision: 2
# Processed by: cddbd v1.5.2PL0 Copyright (c) Steve Scherf et al.
# Submitted via: dBpowerAMP V4.0
#
DISCID=29050104
DTITLE=Héroes Del Silencio - Avalancha [CD maxi)
DYEAR=1900
DGENRE=Rock
TTITLE0=Avalancha (edit)
TTITLE1=Avalancha (album)
TTITLE2=Avalancha (live)
TTITLE3=La chispa adecuada (live)
EXTD=
EXTT0=
EXTT1=
EXTT2=
EXTT3=
PLAYORDER=
